<svg xmlns="http://www.w3.org/2000/svg" viewBox="0 0 64 32" width="100%" height="100%">
  <!-- Yellow Roof & Black Sign -->
  <path d="M 12 14 L 16 4 L 44 4 L 52 14 Z" fill="#FFD700" />
  <rect x="26" y="1" width="8" height="3" fill="#000" />
  <!-- True Black Body & Dark Windows -->
  <path d="M 4 14 L 60 14 L 62 26 L 2 26 Z" fill="#000" />
  <polygon points="17,5 28,5 28,13 13,13" fill="#222" />
  <polygon points="32,5 42,5 49,13 32,13" fill="#222" />
  
  <!-- Subtle Grey Passengers -->
  <circle cx="37" cy="9" r="2.5" fill="#555" />
  <path d="M 34 14 C 34 11, 40 11, 40 14 Z" fill="#555" />
  <circle cx="20" cy="9" r="2" fill="#777" />
  <circle cx="25" cy="8.5" r="2" fill="#666" />
  
  <!-- Wheels with Yellow Trim -->
  <circle cx="14" cy="26" r="4" fill="#000" stroke="#FFD700" stroke-width="1.5"/>
  <circle cx="50" cy="26" r="4" fill="#000" stroke="#FFD700" stroke-width="1.5"/>
  <rect x="58" y="16" width="3" height="4" fill="#FFD700" rx="1" />
</svg>
